<?xml version="1.0" encoding="UTF-8" standalone="no"?>
<svg
   width="200"
   height="2000"
   viewBox="0 0 200 2000"
   fill="none"
   version="1.1"
   id="svg6"
   sodipodi:docname="haikei.svg"
   inkscape:version="1.3.2 (091e20ef0f, 2023-11-25, custom)"
   xmlns:inkscape="http://www.inkscape.org/namespaces/inkscape"
   xmlns:sodipodi="http://sodipodi.sourceforge.net/DTD/sodipodi-0.dtd"
   xmlns="http://www.w3.org/2000/svg"
   xmlns:svg="http://www.w3.org/2000/svg">
  <sodipodi:namedview
     id="namedview6"
     pagecolor="#ffffff"
     bordercolor="#000000"
     borderopacity="0.25"
     inkscape:showpageshadow="2"
     inkscape:pageopacity="0.0"
     inkscape:pagecheckerboard="0"
     inkscape:deskcolor="#d1d1d1"
     inkscape:zoom="0.28489962"
     inkscape:cx="-277.29065"
     inkscape:cy="1219.7278"
     inkscape:window-width="1920"
     inkscape:window-height="1008"
     inkscape:window-x="0"
     inkscape:window-y="0"
     inkscape:window-maximized="1"
     inkscape:current-layer="g6" />
  <g
     clip-path="url(#clip0_190_11450)"
     id="g6"
     transform="matrix(0,-1.0189667,0.35539518,0,-171.20432,1950.3142)">
    <rect
       style="fill:#f9f9f9"
       id="rect1"
       width="368.55087"
       height="2176.2051"
       x="94.770218"
       y="-94.770218"
       transform="matrix(0,2.8137692,-0.98138634,0,1914.0117,481.72944)" />
    <path
       d="m 1923.6299,604.47984 c -79.8529,59.7839 -190.8869,16.19602 -287.7099,16.71116 -94.61,1.704 -188.57,17.806 -283.19,12.387 -94.4,-5.419 -189.24,-32.36 -283.63,-39.482 -94.622,-7.278 -188.578,5.109 -283.197,9.444 -94.398,4.49 -189.236,0.774 -283.634,4.955 -94.618,4.18 -188.575,15.948 -283.194,16.257 -94.397,0.31 -189.2361,-11.147 -236.6556,-16.721 L -61.839352,605.36288 -65,930.548 h 47.4194 236.6556 283.194 283.634 283.197 283.63 283.19 236.66 47.42 z"
       fill="#001220"
       id="path1"
       sodipodi:nodetypes="cccccccccccccccccccc" />
    <path
       d="m 1920.33,679.02933 -87.0544,6.0052 c -47.42,16.103 -102.9556,21.46947 -197.3556,19.14747 -94.61,-2.323 -188.57,-38.863 -283.19,-39.483 -94.4,-0.464 -189.24,35.148 -283.63,41.651 -94.622,6.348 -188.578,-16.258 -283.197,-28.18 -94.397,-11.922 -189.236,-12.851 -283.634,-2.632 -94.618,10.374 -188.575,32.05 -283.193,35.147 -94.398,3.097 -189.237,-12.387 -236.6564,-20.128 L -62.777307,681.11451 -64.9999,930.548 h 47.4195 236.6564 283.193 283.634 283.197 283.63 283.19 236.66 47.42 z"
       fill="#003c4c"
       id="path2"
       sodipodi:nodetypes="ccccccccccccccccccccc" />
    <path
       d="m 1920,705.19245 -126.5817,31.30919 c -46.2639,11.44309 -97.8074,25.69648 -192.2074,11.45248 -94.61,-14.09 -153.8609,-44.54612 -248.4809,-43.92712 -94.4,0.465 -189.24,19.045 -283.63,30.657 -94.622,11.613 -188.578,16.258 -283.197,17.806 -94.397,1.548 -189.236,0 -283.634,-9.6 -94.618,-9.444 -188.575,-27.095 -283.193,-35.302 -94.398,-8.206 -186.514277,-5.24324 -232.766984,-6.657 -41.482772,0.30713 -34.40442,2.65896 -49.442207,4.07957 L -64.9999,930.548 h 47.4195 236.6564 283.193 283.634 283.197 283.63 283.19 236.66 47.42 z"
       fill="#006b71"
       id="path3"
       sodipodi:nodetypes="csccccccccccccccccccc" />
    <path
       d="m 1924.0905,780.55496 -78.9753,30.20142 C 1801.0031,827.62553 1730.32,828.358 1635.92,816.281 c -94.61,-12.231 -188.57,-37.934 -283.19,-38.553 -94.4,-0.465 -189.24,24.309 -283.63,32.05 -94.622,7.742 -188.578,-1.548 -283.197,-10.064 -94.397,-8.516 -189.236,-16.257 -283.634,-14.709 -94.618,1.548 -188.575,12.387 -283.193,8.516 C 124.678,789.65 58.017168,766.88618 9.6455146,766.01747 -17.575653,765.5286 -53.736983,771.69983 -64.733394,780.88025 L -72.778733,910.77314 -17.5804,930.548 h 236.6564 283.193 283.634 283.197 283.63 283.19 236.66 47.42 z"
       fill="#009c7e"
       id="path4"
       sodipodi:nodetypes="csccccccscccccccccccc" />
    <path
       d="m 1922.803,831.00254 c -16.7341,14.68208 -78.7001,48.94992 -119.0022,46.10775 -47.3706,-2.32059 -74.3161,-3.8434 -168.6178,-11.11283 -94.5116,-7.11459 -188.3739,-17.01428 -282.8954,-23.20084 -94.3018,-6.18656 -189.0431,-8.66198 -283.3349,-4.79501 -94.52358,3.86698 -188.38182,14.07535 -282.90238,13.30215 -94.29879,-0.77319 -189.03912,-12.52895 -283.33891,-16.24108 -94.51956,-3.5573 -188.37881,1.08287 -282.89837,10.05353 -94.29979,9.12649 -122.017486,-2.03006 -212.1266184,0.0725 -27.4005316,1.82276 -52.0892446,-3.35772 -73.9175006,-15.9253 l -0.522409,77.11642 50.156348,24.11545 h 236.41018 282.89837 283.33891 282.90238 283.3349 282.8954 c 76.1777,-4.61085 125.6143,16.67537 228.5332,-13.83256 24.6916,9.48405 41.399,-21.50948 61.622,-30.57219 z"
       fill="#6cc96a"
       id="path5"
       sodipodi:nodetypes="ccccccccccccccccccccc"
       style="stroke-width:0.99896" />
    <path
       d="m 1925.0361,882.1522 c -16.797,14.47493 -40.1511,23.65477 -58.7435,31.69113 -7.8256,3.38257 -102.8517,21.03978 -230.3726,8.02967 -94.61,-9.755 -188.57,-30.252 -283.19,-30.746 -94.4,-0.37 -189.24,19.386 -283.63,25.56 -94.622,6.174 -188.578,-1.235 -283.197,-8.026 -94.397,-6.791 -189.236,-12.965 -283.634,-11.731 -94.618,1.235 -188.575,9.879 -283.193,6.792 -94.398,-3.087 -189.237,-17.905 -236.6564,-25.313 -38.852413,-9.26223 -35.289788,-0.21761 -48.290182,1.86617 L -64.9999,1013 h 47.4195 236.6564 283.193 283.634 283.197 283.63 283.19 236.66 47.42 z"
       fill="#ffffff"
       id="path6"
       sodipodi:nodetypes="csccccccccccccccccccc" />
  </g>
  <defs
     id="defs6">
    <clipPath
       id="clip0_190_11450">
      <rect
         width="1985"
         height="929"
         fill="#ffffff"
         transform="matrix(-1,0,0,1,1920,0)"
         id="rect6"
         x="0"
         y="0" />
    </clipPath>
  </defs>
</svg>
