<svg xmlns="http://www.w3.org/2000/svg" width="200" height="2000" fill="none"><g clip-path="url(#a)" transform="matrix(0 -1.01897 .3554 0 -171.204 1950.314)"><path d="M94.77-94.77h368.551v2176.205H94.77z" style="fill:#f9f9f9" transform="matrix(0 2.81377 -.98139 0 1914.012 481.73)"/><path fill="#001220" d="M1923.63 604.48c-79.853 59.784-190.887 16.196-287.71 16.711-94.61 1.704-188.57 17.806-283.19 12.387-94.4-5.419-189.24-32.36-283.63-39.482-94.622-7.278-188.578 5.109-283.197 9.444-94.398 4.49-189.236.774-283.634 4.955-94.618 4.18-188.575 15.948-283.194 16.257-94.397.31-189.236-11.147-236.656-16.721l-44.258-2.668L-65 930.548H1920z"/><path fill="#003c4c" d="m1920.33 679.03-87.054 6.005c-47.42 16.103-102.956 21.469-197.356 19.147-94.61-2.323-188.57-38.863-283.19-39.483-94.4-.464-189.24 35.148-283.63 41.651-94.622 6.348-188.578-16.258-283.197-28.18-94.397-11.922-189.236-12.851-283.634-2.632-94.618 10.374-188.575 32.05-283.193 35.147-94.398 3.097-189.237-12.387-236.656-20.128l-45.197-9.442L-65 930.548H1920z"/><path fill="#006b71" d="m1920 705.192-126.582 31.31c-46.264 11.443-97.807 25.696-192.207 11.452-94.61-14.09-153.861-44.546-248.481-43.927-94.4.465-189.24 19.045-283.63 30.657-94.622 11.613-188.578 16.258-283.197 17.806-94.397 1.548-189.236 0-283.634-9.6-94.618-9.444-188.575-27.095-283.193-35.302-94.398-8.206-186.514-5.243-232.767-6.657-41.483.307-34.404 2.659-49.442 4.08L-65 930.548H1920z"/><path fill="#009c7e" d="m1924.09 780.555-78.975 30.201c-44.112 16.87-114.795 17.602-209.195 5.525-94.61-12.231-188.57-37.934-283.19-38.553-94.4-.465-189.24 24.309-283.63 32.05-94.622 7.742-188.578-1.548-283.197-10.064-94.397-8.516-189.236-16.257-283.634-14.709-94.618 1.548-188.575 12.387-283.193 8.516-94.398-3.871-161.059-26.635-209.43-27.504-27.222-.488-63.383 5.683-74.38 14.863l-8.045 129.893 55.199 19.775H1920z"/><path fill="#6cc96a" d="M1922.803 831.003c-16.734 14.682-78.7 48.95-119.002 46.107-47.37-2.32-74.316-3.843-168.618-11.113-94.512-7.114-188.374-17.014-282.895-23.2-94.302-6.187-189.043-8.662-283.335-4.795-94.524 3.867-188.382 14.075-282.903 13.302-94.298-.773-189.039-12.53-283.339-16.241-94.52-3.558-188.378 1.083-282.898 10.053-94.3 9.127-122.017-2.03-212.127.073-27.4 1.822-52.089-3.358-73.917-15.926l-.522 77.117 50.156 24.115h1651.78c76.178-4.61 125.614 16.676 228.533-13.832 24.692 9.484 41.4-21.51 61.622-30.572z" style="stroke-width:.99896"/><path fill="#fff" d="M1925.036 882.152c-16.797 14.475-40.151 23.655-58.743 31.691-7.826 3.383-102.852 21.04-230.373 8.03-94.61-9.755-188.57-30.252-283.19-30.746-94.4-.37-189.24 19.386-283.63 25.56-94.622 6.174-188.578-1.235-283.197-8.026-94.397-6.791-189.236-12.965-283.634-11.731-94.618 1.235-188.575 9.879-283.193 6.792-94.398-3.087-189.237-17.905-236.656-25.313-38.853-9.262-35.29-.218-48.29 1.866L-65 1013H1920z"/></g><defs><clipPath id="a"><path fill="#fff" d="M1920 0H-65v929h1985z"/></clipPath></defs></svg>