<svg xmlns="http://www.w3.org/2000/svg" width="200" height="2000" fill="none"><path d="M98.143-32.856h106.88v2052.025H98.143Z" style="fill:#f9f9f9;stroke-width:.522926"/><path fill="#001220" d="M43.9-9.784c22.534 80.863 6.105 193.303 6.299 291.35.642 95.808 6.711 190.957 4.669 286.775-2.043 95.595-12.198 191.635-14.882 287.22-2.743 95.82 1.926 190.964 3.56 286.78 1.692 95.593.291 191.632 1.867 287.224 1.576 95.816 6.011 190.962 6.128 286.778.117 95.592-4.202 191.631-6.303 239.652l-1.005 44.818 122.57 3.2V-6.107z"/><path fill="#003c4c" d="m72-6.443 2.263 88.156c6.07 48.02 8.092 104.26 7.217 199.854-.876 95.807-14.648 190.956-14.882 286.774-.175 95.595 13.248 191.635 15.699 287.22 2.393 95.82-6.128 190.964-10.622 286.78-4.493 95.592-4.843 191.632-.992 287.224 3.91 95.816 12.08 190.962 13.248 286.777 1.167 95.593-4.669 191.632-7.587 239.652l-3.559 45.769 94.017 2.25V-6.107z"/><path fill="#006b71" d="m81.86-6.108 11.802 128.184c4.313 46.85 9.685 99.044 4.316 194.64-5.31 95.807-16.79 155.807-16.557 251.625.176 95.595 7.179 191.635 11.556 287.22 4.377 95.82 6.128 190.964 6.711 286.78.584 95.592 0 191.632-3.618 287.224-3.56 95.816-10.213 190.962-13.306 286.777-3.093 95.593-1.977 188.875-2.51 235.713.116 42.008 1.003 34.84 1.538 50.068l85.01 1.89V-6.107z"/><path fill="#009c7e" d="m110.267-10.25 11.383 79.974c6.359 44.67 6.635 116.248 2.082 211.843-4.61 95.807-14.298 190.956-14.531 286.774-.175 95.595 9.163 191.635 12.08 287.22 2.918 95.82-.583 190.964-3.793 286.78-3.21 95.592-6.128 191.632-5.544 287.224.583 95.816 4.669 190.962 3.21 286.777-1.46 95.593-10.04 163.098-10.367 212.081-.184 27.567 2.142 64.185 5.602 75.321l48.96 8.147 7.453-55.897V-6.108Z"/><path fill="#6cc96a" d="M129.328-8.947C135.256 8 149.093 70.75 147.945 111.561c-.937 47.97-1.551 75.257-4.487 170.752-2.872 95.708-6.87 190.758-9.368 286.476-2.498 95.495-3.497 191.435-1.936 286.92 1.562 95.72 5.683 190.767 5.371 286.484-.312 95.491-5.059 191.431-6.557 286.925-1.437 95.716.437 190.762 4.059 286.478 3.685 95.494-.82 123.561.03 214.812.735 27.747-1.357 52.748-6.431 74.852l31.138.529 9.737-50.79V282.312c-1.861-77.142 11.848-126.602-.47-230.823 3.829-25.005-13.8-42.526-17.46-63.004z" style="stroke-width:.638779"/><path fill="#fff" d="M149.513-11.208c7.214 17.01 11.79 40.659 15.795 59.486 1.686 7.925 10.486 104.154 4.002 233.289-4.862 95.807-15.078 190.956-15.324 286.774-.184 95.595 9.662 191.635 12.74 287.22 3.076 95.82-.616 190.964-4 286.78-3.386 95.592-6.463 191.632-5.848 287.224.616 95.816 4.924 190.962 3.385 286.778-1.538 95.592-8.923 191.632-12.615 239.65-4.617 39.345-.11 35.737.93 48.902l66.15-.881V-6.108Z" style="stroke-width:.710426"/></svg>